<?xml version="1.0" encoding="UTF-8" standalone="no"?>
<!-- Created with Inkscape (http://www.inkscape.org/) -->

<svg
   xmlns:dc="http://purl.org/dc/elements/1.1/"
   xmlns:cc="http://creativecommons.org/ns#"
   xmlns:rdf="http://www.w3.org/1999/02/22-rdf-syntax-ns#"
   xmlns:svg="http://www.w3.org/2000/svg"
   xmlns="http://www.w3.org/2000/svg"
   xmlns:sodipodi="http://sodipodi.sourceforge.net/DTD/sodipodi-0.dtd"
   xmlns:inkscape="http://www.inkscape.org/namespaces/inkscape"
   id="svg2"
   version="1.1"
   inkscape:version="0.48.3.1 r9886"
   xml:space="preserve"
   sodipodi:docname="facebook-login.svg"
   viewBox="0 0 193.21625 51.997501"
   height="100%"
   width="100%"><metadata
     id="metadata8"><rdf:RDF><cc:Work
         rdf:about=""><dc:format>image/svg+xml</dc:format><dc:type
           rdf:resource="http://purl.org/dc/dcmitype/StillImage" /><dc:title></dc:title></cc:Work></rdf:RDF></metadata><defs
     id="defs6"><clipPath
       clipPathUnits="userSpaceOnUse"
       id="clipPath24"><path
         d="M 0,320 240,320 240,0 0,0 0,320 z"
         id="path26"
         inkscape:connector-curvature="0" /></clipPath><clipPath
       clipPathUnits="userSpaceOnUse"
       id="clipPath32"><path
         d="m 82.0728,178.533 1.8906,0 0,-37.698 -1.8906,0 0,37.698 z"
         id="path34"
         inkscape:connector-curvature="0" /></clipPath><clipPath
       clipPathUnits="userSpaceOnUse"
       id="clipPath50"><path
         d="m 70.038,173.254 c -3.983,0 -6.767,-3.001 -6.767,-7.432 l 0,0 0,-3.283 -5.778,0 0,-5.356 5.778,0 0,-16.073 5.776,0 0,16.073 5.778,0 0,5.356 -5.778,0 0,4.311 c 0,0.879 0.949,1.13 1.446,1.13 l 0,0 4.332,0 0,5.274 -4.787,0 z"
         id="path52"
         inkscape:connector-curvature="0" /></clipPath><clipPath
       clipPathUnits="userSpaceOnUse"
       id="clipPath144"><path
         d="M 0,320 240,320 240,0 0,0 0,320 z"
         id="path146"
         inkscape:connector-curvature="0" /></clipPath></defs><sodipodi:namedview
     pagecolor="#ffffff"
     bordercolor="#666666"
     borderopacity="1"
     objecttolerance="10"
     gridtolerance="10"
     guidetolerance="10"
     inkscape:pageopacity="0"
     inkscape:pageshadow="2"
     inkscape:window-width="1535"
     inkscape:window-height="876"
     id="namedview4"
     showgrid="false"
     fit-margin-top="0"
     fit-margin-left="0"
     fit-margin-right="0"
     fit-margin-bottom="0"
     inkscape:zoom="1.7262109"
     inkscape:cx="-5.5049121"
     inkscape:cy="26.4675"
     inkscape:window-x="65"
     inkscape:window-y="24"
     inkscape:window-maximized="1"
     inkscape:current-layer="g142" /><g
     id="g10"
     inkscape:groupmode="layer"
     inkscape:label="F-connect"
     transform="matrix(1.25,0,0,-1.25,-53.5475,225.53)"><path
       d="m 196.466,139.771 -152.682,0 0,39.707 152.682,0 0,-39.707 z"
       style="fill:#6a81b0;fill-opacity:1;fill-rule:nonzero;stroke:none"
       id="path12"
       inkscape:connector-curvature="0" /><path
       d="m 44.729,140.717 150.792,0 0,37.816 -150.792,0 0,-37.816 z m 152.682,-1.891 -154.573,0 0,41.598 154.573,0 0,-41.598 z"
       style="fill:#3a5083;fill-opacity:1;fill-rule:nonzero;stroke:none"
       id="path14"
       inkscape:connector-curvature="0" /><path
       d="m 195.993,176.662 -151.167,0 0,1.891 151.167,0 0,-1.891 z"
       style="fill:#7f92bc;fill-opacity:1;fill-rule:nonzero;stroke:none"
       id="path16"
       inkscape:connector-curvature="0" /><path
       d="m 82.059,140.953 -37.233,0 0,7.327 37.233,0 0,-7.327 z"
       style="fill:#7f92bc;fill-opacity:1;fill-rule:nonzero;stroke:none"
       id="path18"
       inkscape:connector-curvature="0" /><g
       id="g20"><g
         id="g22"
         clip-path="url(#clipPath24)"><g
           id="g28"><g
             id="g30" /><g
             id="g36"><g
               clip-path="url(#clipPath32)"
               id="g38"
               style="opacity:0.5"><path
                 d="m 83.963,140.835 -1.891,0 0,37.698 1.891,0 0,-37.698 z"
                 style="fill:#6a81b0;fill-opacity:1;fill-rule:nonzero;stroke:none"
                 id="path40"
                 inkscape:connector-curvature="0" /></g></g></g><g
           id="g42"
           transform="translate(70.4922,167.9805)"><path
             d="m 0,0 4.333,0 0,5.273 -4.787,0 c -3.984,0 -6.768,-3 -6.768,-7.431 l 0,-3.283 -5.777,0 0,-5.356 5.777,0 0,-16.073 5.777,0 0,16.073 5.778,0 0,5.356 -5.778,0 0,4.311 C -1.445,-0.251 -0.497,0 0,0"
             style="fill:#ffffff;fill-opacity:1;fill-rule:nonzero;stroke:none"
             id="path44"
             inkscape:connector-curvature="0" /></g></g></g><g
       id="g46"><g
         id="g48"
         clip-path="url(#clipPath50)"><path
           d="m 74.827,162.542 -17.335,0 0,10.709 17.335,0 0,-10.709 z"
           style="fill:#ffffff;fill-opacity:1;fill-rule:nonzero;stroke:none"
           id="path54"
           inkscape:connector-curvature="0" /><path
           d="m 74.827,162.025 -17.335,0 0,0.517 17.335,0 0,-0.517 z"
           style="fill:#ffffff;fill-opacity:1;fill-rule:nonzero;stroke:none"
           id="path56"
           inkscape:connector-curvature="0" /><path
           d="m 74.827,161.516 -17.335,0 0,0.51 17.335,0 0,-0.51 z"
           style="fill:#ffffff;fill-opacity:1;fill-rule:nonzero;stroke:none"
           id="path58"
           inkscape:connector-curvature="0" /><path
           d="m 74.827,160.999 -17.335,0 0,0.517 17.335,0 0,-0.517 z"
           style="fill:#ffffff;fill-opacity:1;fill-rule:nonzero;stroke:none"
           id="path60"
           inkscape:connector-curvature="0" /><path
           d="m 74.827,160.489 -17.335,0 0,0.51 17.335,0 0,-0.51 z"
           style="fill:#ffffff;fill-opacity:1;fill-rule:nonzero;stroke:none"
           id="path62"
           inkscape:connector-curvature="0" /><path
           d="m 74.827,159.972 -17.335,0 0,0.517 17.335,0 0,-0.517 z"
           style="fill:#ffffff;fill-opacity:1;fill-rule:nonzero;stroke:none"
           id="path64"
           inkscape:connector-curvature="0" /><path
           d="m 74.827,159.462 -17.335,0 0,0.51 17.335,0 0,-0.51 z"
           style="fill:#ffffff;fill-opacity:1;fill-rule:nonzero;stroke:none"
           id="path66"
           inkscape:connector-curvature="0" /><path
           d="m 74.827,158.945 -17.335,0 0,0.517 17.335,0 0,-0.517 z"
           style="fill:#ffffff;fill-opacity:1;fill-rule:nonzero;stroke:none"
           id="path68"
           inkscape:connector-curvature="0" /><path
           d="m 74.827,158.436 -17.335,0 0,0.51 17.335,0 0,-0.51 z"
           style="fill:#ffffff;fill-opacity:1;fill-rule:nonzero;stroke:none"
           id="path70"
           inkscape:connector-curvature="0" /><path
           d="m 74.827,157.919 -17.335,0 0,0.517 17.335,0 0,-0.517 z"
           style="fill:#ffffff;fill-opacity:1;fill-rule:nonzero;stroke:none"
           id="path72"
           inkscape:connector-curvature="0" /><path
           d="m 74.827,157.409 -17.335,0 0,0.51 17.335,0 0,-0.51 z"
           style="fill:#ffffff;fill-opacity:1;fill-rule:nonzero;stroke:none"
           id="path74"
           inkscape:connector-curvature="0" /><path
           d="m 74.827,156.893 -17.335,0 0,0.517 17.335,0 0,-0.517 z"
           style="fill:#ffffff;fill-opacity:1;fill-rule:nonzero;stroke:none"
           id="path76"
           inkscape:connector-curvature="0" /><path
           d="m 74.827,156.383 -17.335,0 0,0.51 17.335,0 0,-0.51 z"
           style="fill:#ffffff;fill-opacity:1;fill-rule:nonzero;stroke:none"
           id="path78"
           inkscape:connector-curvature="0" /><path
           d="m 74.827,155.865 -17.335,0 0,0.518 17.335,0 0,-0.518 z"
           style="fill:#ffffff;fill-opacity:1;fill-rule:nonzero;stroke:none"
           id="path80"
           inkscape:connector-curvature="0" /><path
           d="m 74.827,155.355 -17.335,0 0,0.51 17.335,0 0,-0.51 z"
           style="fill:#ffffff;fill-opacity:1;fill-rule:nonzero;stroke:none"
           id="path82"
           inkscape:connector-curvature="0" /><path
           d="m 74.827,154.839 -17.335,0 0,0.517 17.335,0 0,-0.517 z"
           style="fill:#ffffff;fill-opacity:1;fill-rule:nonzero;stroke:none"
           id="path84"
           inkscape:connector-curvature="0" /><path
           d="m 74.827,154.329 -17.335,0 0,0.51 17.335,0 0,-0.51 z"
           style="fill:#ffffff;fill-opacity:1;fill-rule:nonzero;stroke:none"
           id="path86"
           inkscape:connector-curvature="0" /><path
           d="m 74.827,153.813 -17.335,0 0,0.517 17.335,0 0,-0.517 z"
           style="fill:#ffffff;fill-opacity:1;fill-rule:nonzero;stroke:none"
           id="path88"
           inkscape:connector-curvature="0" /><path
           d="m 74.827,153.303 -17.335,0 0,0.51 17.335,0 0,-0.51 z"
           style="fill:#ffffff;fill-opacity:1;fill-rule:nonzero;stroke:none"
           id="path90"
           inkscape:connector-curvature="0" /><path
           d="m 74.827,152.785 -17.335,0 0,0.518 17.335,0 0,-0.518 z"
           style="fill:#ffffff;fill-opacity:1;fill-rule:nonzero;stroke:none"
           id="path92"
           inkscape:connector-curvature="0" /><path
           d="m 74.827,152.276 -17.335,0 0,0.509 17.335,0 0,-0.509 z"
           style="fill:#ffffff;fill-opacity:1;fill-rule:nonzero;stroke:none"
           id="path94"
           inkscape:connector-curvature="0" /><path
           d="m 74.827,151.759 -17.335,0 0,0.518 17.335,0 0,-0.518 z"
           style="fill:#ffffff;fill-opacity:1;fill-rule:nonzero;stroke:none"
           id="path96"
           inkscape:connector-curvature="0" /><path
           d="m 74.827,151.249 -17.335,0 0,0.51 17.335,0 0,-0.51 z"
           style="fill:#ffffff;fill-opacity:1;fill-rule:nonzero;stroke:none"
           id="path98"
           inkscape:connector-curvature="0" /><path
           d="m 74.827,150.732 -17.335,0 0,0.517 17.335,0 0,-0.517 z"
           style="fill:#ffffff;fill-opacity:1;fill-rule:nonzero;stroke:none"
           id="path100"
           inkscape:connector-curvature="0" /><path
           d="m 74.827,150.223 -17.335,0 0,0.51 17.335,0 0,-0.51 z"
           style="fill:#ffffff;fill-opacity:1;fill-rule:nonzero;stroke:none"
           id="path102"
           inkscape:connector-curvature="0" /><path
           d="m 74.827,149.706 -17.335,0 0,0.517 17.335,0 0,-0.517 z"
           style="fill:#ffffff;fill-opacity:1;fill-rule:nonzero;stroke:none"
           id="path104"
           inkscape:connector-curvature="0" /><path
           d="m 74.827,149.196 -17.335,0 0,0.51 17.335,0 0,-0.51 z"
           style="fill:#ffffff;fill-opacity:1;fill-rule:nonzero;stroke:none"
           id="path106"
           inkscape:connector-curvature="0" /><path
           d="m 74.827,148.679 -17.335,0 0,0.518 17.335,0 0,-0.518 z"
           style="fill:#ffffff;fill-opacity:1;fill-rule:nonzero;stroke:none"
           id="path108"
           inkscape:connector-curvature="0" /><path
           d="m 74.827,148.169 -17.335,0 0,0.51 17.335,0 0,-0.51 z"
           style="fill:#ffffff;fill-opacity:1;fill-rule:nonzero;stroke:none"
           id="path110"
           inkscape:connector-curvature="0" /><path
           d="m 74.827,147.652 -17.335,0 0,0.517 17.335,0 0,-0.517 z"
           style="fill:#ffffff;fill-opacity:1;fill-rule:nonzero;stroke:none"
           id="path112"
           inkscape:connector-curvature="0" /><path
           d="m 74.827,147.143 -17.335,0 0,0.51 17.335,0 0,-0.51 z"
           style="fill:#ffffff;fill-opacity:1;fill-rule:nonzero;stroke:none"
           id="path114"
           inkscape:connector-curvature="0" /><path
           d="m 74.827,146.626 -17.335,0 0,0.517 17.335,0 0,-0.517 z"
           style="fill:#ffffff;fill-opacity:1;fill-rule:nonzero;stroke:none"
           id="path116"
           inkscape:connector-curvature="0" /><path
           d="m 74.827,146.116 -17.335,0 0,0.51 17.335,0 0,-0.51 z"
           style="fill:#ffffff;fill-opacity:1;fill-rule:nonzero;stroke:none"
           id="path118"
           inkscape:connector-curvature="0" /><path
           d="m 74.827,145.599 -17.335,0 0,0.518 17.335,0 0,-0.518 z"
           style="fill:#ffffff;fill-opacity:1;fill-rule:nonzero;stroke:none"
           id="path120"
           inkscape:connector-curvature="0" /><path
           d="m 74.827,145.09 -17.335,0 0,0.509 17.335,0 0,-0.509 z"
           style="fill:#ffffff;fill-opacity:1;fill-rule:nonzero;stroke:none"
           id="path122"
           inkscape:connector-curvature="0" /><path
           d="m 74.827,144.572 -17.335,0 0,0.518 17.335,0 0,-0.518 z"
           style="fill:#ffffff;fill-opacity:1;fill-rule:nonzero;stroke:none"
           id="path124"
           inkscape:connector-curvature="0" /><path
           d="m 74.827,144.063 -17.335,0 0,0.51 17.335,0 0,-0.51 z"
           style="fill:#ffffff;fill-opacity:1;fill-rule:nonzero;stroke:none"
           id="path126"
           inkscape:connector-curvature="0" /><path
           d="m 74.827,143.546 -17.335,0 0,0.517 17.335,0 0,-0.517 z"
           style="fill:#ffffff;fill-opacity:1;fill-rule:nonzero;stroke:none"
           id="path128"
           inkscape:connector-curvature="0" /><path
           d="m 74.827,143.036 -17.335,0 0,0.51 17.335,0 0,-0.51 z"
           style="fill:#ffffff;fill-opacity:1;fill-rule:nonzero;stroke:none"
           id="path130"
           inkscape:connector-curvature="0" /><path
           d="m 74.827,142.52 -17.335,0 0,0.517 17.335,0 0,-0.517 z"
           style="fill:#ffffff;fill-opacity:1;fill-rule:nonzero;stroke:none"
           id="path132"
           inkscape:connector-curvature="0" /><path
           d="m 74.827,142.01 -17.335,0 0,0.51 17.335,0 0,-0.51 z"
           style="fill:#ffffff;fill-opacity:1;fill-rule:nonzero;stroke:none"
           id="path134"
           inkscape:connector-curvature="0" /><path
           d="m 74.827,141.492 -17.335,0 0,0.518 17.335,0 0,-0.518 z"
           style="fill:#ffffff;fill-opacity:1;fill-rule:nonzero;stroke:none"
           id="path136"
           inkscape:connector-curvature="0" /><path
           d="m 57.492,141.492 17.335,0 0,-0.384 -17.335,0 0,0.384 z"
           style="fill:#ffffff;fill-opacity:1;fill-rule:nonzero;stroke:none"
           id="path138"
           inkscape:connector-curvature="0" /></g></g><g
       id="g140"><g
         id="g142"
         clip-path="url(#clipPath144)"><text
           xml:space="preserve"
           style="font-size:32px;font-style:normal;font-weight:normal;line-height:125%;letter-spacing:0px;word-spacing:0px;fill:#ffffff;fill-opacity:1;stroke:#000000;stroke-linecap:round;stroke-linejoin:round;stroke-opacity:0.3105023;font-family:Sans"
           x="89.444466"
           y="-149.22858"
           id="text3151"
           sodipodi:linespacing="125%"
           transform="scale(1,-1)"><tspan
             sodipodi:role="line"
             id="tspan3153"
             x="89.444466"
             y="-149.22858"
             style="font-weight:bold;-inkscape-font-specification:Sans Bold">Login</tspan></text>
</g></g></g></svg>